<svg width="196" height="196" viewBox="0 0 196 196" fill="none" xmlns="http://www.w3.org/2000/svg">
<rect x="0.707107" y="97.8724" width="137.413" height="137.413" transform="rotate(-45 0.707107 97.8724)" fill="white" stroke="#506EE5"/>
<g clip-path="url(#clip0_58_8)">
<path d="M128.738 120.101C132.938 120.101 136.336 116.665 136.336 112.465L136.375 70.4638C136.375 66.2637 132.938 62.8273 128.738 62.8273H67.6455C63.4454 62.8273 60.009 66.2637 60.009 70.4638V112.465C60.009 116.665 63.4454 120.101 67.6455 120.101H52.3724C52.3724 124.302 55.8089 127.738 60.009 127.738H136.375C140.575 127.738 144.011 124.302 144.011 120.101H128.738ZM67.6455 70.4638H128.738V112.465H67.6455V70.4638ZM98.1918 123.92C96.0917 123.92 94.3735 122.201 94.3735 120.101C94.3735 118.001 96.0917 116.283 98.1918 116.283C100.292 116.283 102.01 118.001 102.01 120.101C102.01 122.201 100.292 123.92 98.1918 123.92Z" fill="#506EE5"/>
</g>
<defs>
<clipPath id="clip0_58_8">
<rect width="91.6386" height="91.6386" fill="white" transform="translate(52.3724 51.3724)"/>
</clipPath>
</defs>
</svg>
