<svg width="80" height="80" viewBox="0 0 80 80" fill="none" xmlns="http://www.w3.org/2000/svg">
<circle cx="40" cy="40" r="38" fill="#506EE5" stroke="#F5EFE6" stroke-width="4"/>
<path d="M12.4722 42.2129C12.4722 38.873 12.9556 35.9141 13.9224 33.3359C14.8892 30.7432 16.4126 28.6997 18.4927 27.2056C20.5874 25.6968 23.2461 24.9424 26.4688 24.9424C27.6113 24.9424 28.8491 25.0156 30.1821 25.1621C31.5151 25.2939 32.8188 25.5063 34.0933 25.7993C34.8843 26.2681 35.5728 26.7588 36.1587 27.2715C36.7593 27.7695 37.3306 28.3774 37.8726 29.0952C37.8726 30.1353 37.7334 31.5122 37.4551 33.2261C37.1768 34.9399 36.8252 36.5366 36.4004 38.0161C35.9902 39.4956 35.5947 40.4551 35.2139 40.8945C34.833 41.085 34.5107 41.2168 34.2471 41.29C33.9834 41.3486 33.5732 41.3779 33.0166 41.3779C32.3281 41.3779 31.6836 41.3267 31.083 41.2241C30.4824 41.1216 30.0283 40.9824 29.7207 40.8066L28.9517 33.4019C27.9116 33.1089 26.249 32.9624 23.9639 32.9624C23.4658 32.9624 23.0996 32.9697 22.8652 32.9844C22.2354 35.0059 21.8838 37.7231 21.8105 41.1362V41.9932C21.8105 44.1758 21.9497 46.1021 22.228 47.772C22.4185 48.8706 22.5796 49.7129 22.7114 50.2988C22.8579 50.8848 23.0337 51.3389 23.2388 51.6611C23.4585 51.9688 23.7295 52.1226 24.0518 52.1226C25.1943 52.1226 26.2124 51.7271 27.106 50.936C28.0142 50.145 28.7905 49.1343 29.4351 47.9038L28.8418 44.7617C30.7607 44.1172 32.6577 43.7876 34.5327 43.7729C35.4409 43.7729 36.2319 43.8755 36.9058 44.0806C37.5796 44.2856 38.0337 44.6885 38.2681 45.2891C37.9897 47.457 37.543 50.1157 36.9277 53.2651C36.3125 56.4146 35.8511 58.3262 35.5435 59C34.606 59.293 33.6978 59.4395 32.8188 59.4395C32.3647 59.4395 31.8813 59.4028 31.3687 59.3296C30.8706 59.2563 30.4312 59.1465 30.0503 59C30.0503 58.5166 30.0063 57.3667 29.9185 55.5503L29.8525 53.9243L29.2593 53.7485C28.2485 55.4478 27.1133 56.8247 25.8535 57.8794C24.5938 58.9194 23.2241 59.4395 21.7446 59.4395C19.8403 59.4395 18.1924 58.7363 16.8008 57.3301C15.4092 55.9238 14.3398 53.9243 13.5928 51.3315C12.8457 48.7241 12.4722 45.6846 12.4722 42.2129ZM43.1899 42.7402C43.1899 38.3164 43.2559 34.918 43.3877 32.5449H43.3657L40.2236 32.0835C40.0332 31.5415 39.8867 30.9409 39.7842 30.2817C39.6816 29.6226 39.6304 28.9854 39.6304 28.3701C39.6304 27.9014 39.667 27.3887 39.7402 26.832C41.542 26.1875 44.0249 25.7114 47.189 25.4038C50.353 25.0962 53.3999 24.9424 56.3296 24.9424C58.5708 24.9424 60.4971 25.1182 62.1084 25.4697C63.7197 25.8213 65.0674 26.6196 66.1514 27.8647C67.25 29.0952 67.7993 30.9409 67.7993 33.4019C67.7993 34.6323 67.5356 36.0679 67.0083 37.7085C66.4956 39.3345 65.8364 40.9238 65.0308 42.4766C64.2397 44.0146 63.4414 45.2598 62.6357 46.2119C61.4492 47.6328 60.1309 48.4678 58.6807 48.7168C56.2783 49.0977 53.7368 49.2881 51.0562 49.2881C50.9976 50.7969 50.9756 51.8809 50.9902 52.54L54.2642 52.3203C54.938 53.4189 55.3115 54.7227 55.3848 56.2314C55.3848 56.3047 55.0552 56.6196 54.396 57.1763C53.7368 57.7329 52.8652 58.2456 51.7812 58.7144C50.7119 59.1831 49.4814 59.4175 48.0898 59.4175C46.7129 59.4175 45.6143 59.0439 44.7939 58.2969C43.9883 57.5352 43.5854 56.2241 43.5854 54.3638C43.3364 51.3169 43.2119 47.4497 43.2119 42.7622L43.1899 42.7402ZM57.0986 43.1138C57.4795 41.5024 57.7944 39.7959 58.0435 37.9941C58.3071 36.1777 58.4536 34.5957 58.4829 33.248C58.4097 33.1162 58.0361 32.999 57.3623 32.8965C56.6885 32.7939 55.8169 32.7427 54.7476 32.7427C54.0005 32.7427 53.0703 32.772 51.957 32.8306C51.8252 37.2544 51.6494 40.8066 51.4297 43.4873L57.0986 43.1138Z" fill="#F5EFE6"/>
</svg>
